<svg xmlns="http://www.w3.org/2000/svg" id="Group_1670" data-name="Group 1670" width="86.47" height="95.785" viewBox="0 0 86.47 95.785"><path id="Path_4378" data-name="Path 4378" d="M211.646,537.565V507.271c5.333-.856,9.03-6.339,8.257-12.246s-5.723-10-11.056-9.146c-4.8.77-8.362,5.33-8.358,10.7H133.542v61.793h41.913c.759,13.616,11.34,23.971,23.633,23.129s21.641-12.561,20.881-26.177a25.629,25.629,0,0,0-8.323-17.761Zm-1.394-48.708c3.851,0,6.973,3.459,6.973,7.725s-3.124,7.724-6.974,7.723-6.973-3.458-6.973-7.724,3.124-7.719,6.974-7.724Zm-73.92,10.814H200.9a11.253,11.253,0,0,0,1.544,3.375l-8.53,9.443a3.689,3.689,0,0,0-3.586,0l-2.811-3.113a5.012,5.012,0,0,0,.418-1.986,4.206,4.206,0,1,0-8.367,0,4.961,4.961,0,0,0,.419,1.985l-6.994,7.747a3.828,3.828,0,0,0-1.793-.463,4.658,4.658,0,1,0,4.184,4.634h0a4.993,4.993,0,0,0-.42-1.985l6.994-7.747a3.7,3.7,0,0,0,3.586,0l2.811,3.113a4.986,4.986,0,0,0-.419,1.987,4.206,4.206,0,1,0,8.368,0,4.948,4.948,0,0,0-.421-1.985l8.533-9.449a9.214,9.214,0,0,0,4.441,2.043v28.185c-9.2-5.941-20.9-3.81-27.9,5.078v-6.879h-8.367v18.538h3.2a27.228,27.228,0,0,0-.336,3.089H136.332Zm55.789,15.448a1.552,1.552,0,1,1-1.395,1.545,1.476,1.476,0,0,1,1.395-1.545Zm-9.763-7.724a1.4,1.4,0,1,1,1.395,1.545h0a1.477,1.477,0,0,1-1.395-1.545Zm-9.763,13.9a1.4,1.4,0,1,1-1.4-1.545h0a1.478,1.478,0,0,1,1.395,1.548h0Zm25.105,47.89c-6.163,0-11.159-5.533-11.159-12.359s5-12.359,11.159-12.359,11.158,5.534,11.158,12.359-5,12.356-11.158,12.363Zm-19.526-24.3a26.011,26.011,0,0,0-1.659,4.216h-1.131V536.746h2.79ZM196.3,535.28v6.18c-7.651.836-13.24,8.383-12.485,16.857a16.724,16.724,0,0,0,1.175,4.852l-4.838,3.094c-4.726-10.691-.732-23.6,8.92-28.837a18.019,18.019,0,0,1,7.228-2.146Zm1.395,43.176a19.07,19.07,0,0,1-16.161-9.508l4.857-3.107c4.47,6.915,13.155,8.507,19.4,3.556a14.771,14.771,0,0,0,3.21-3.556l4.858,3.107A19.072,19.072,0,0,1,197.7,578.456Zm17.543-12.193-4.838-3.094c3.174-7.754.072-16.891-6.929-20.407a12.883,12.883,0,0,0-4.381-1.3v-6.18c10.721.812,18.819,11.1,18.086,22.973A23.392,23.392,0,0,1,215.242,566.263Z" transform="translate(-133.542 -485.766)" fill="#4d4b4b"></path><path id="Path_4379" data-name="Path 4379" d="M203.7,547.56c-4.623,0-8.368,4.15-8.368,9.269s3.746,9.269,8.368,9.269,8.368-4.15,8.368-9.269h0C212.067,551.712,208.323,547.565,203.7,547.56Zm0,15.448c-3.081,0-5.579-2.766-5.579-6.179s2.5-6.179,5.579-6.179,5.579,2.767,5.579,6.179S206.783,563.005,203.7,563.008Z" transform="translate(-139.546 -485.766)" fill="#4d4b4b"></path><path id="Path_4380" data-name="Path 4380" d="M139.722,502.76h2.789v3.09h-2.789Z" transform="translate(-134.143 -485.766)" fill="#4d4b4b"></path><path id="Path_4381" data-name="Path 4381" d="M145.9,502.76h19.526v3.09H145.9Z" transform="translate(-134.743 -485.766)" fill="#4d4b4b"></path><path id="Path_4382" data-name="Path 4382" d="M139.722,508.94h2.789v3.089h-2.789Z" transform="translate(-134.143 -485.766)" fill="#4d4b4b"></path><path id="Path_4383" data-name="Path 4383" d="M145.9,508.94h19.526v3.089H145.9Z" transform="translate(-134.743 -485.766)" fill="#4d4b4b"></path><path id="Path_4384" data-name="Path 4384" d="M139.722,515.119h2.789v3.089h-2.789Z" transform="translate(-134.143 -485.766)" fill="#4d4b4b"></path><path id="Path_4385" data-name="Path 4385" d="M145.9,515.119h19.526v3.089H145.9Z" transform="translate(-134.743 -485.766)" fill="#4d4b4b"></path><path id="Path_4386" data-name="Path 4386" d="M139.722,521.3h2.789v3.09h-2.789Z" transform="translate(-134.143 -485.766)" fill="#4d4b4b"></path><path id="Path_4387" data-name="Path 4387" d="M145.9,521.3h19.526v3.09H145.9Z" transform="translate(-134.743 -485.766)" fill="#4d4b4b"></path><path id="Path_4388" data-name="Path 4388" d="M139.722,552.2h8.369V536.746h-8.369Zm2.789-12.359h2.79V549.1h-2.79Z" transform="translate(-134.143 -485.766)" fill="#4d4b4b"></path><path id="Path_4389" data-name="Path 4389" d="M152.08,552.2h8.368V539.836H152.08Zm2.79-9.269h2.79V549.1h-2.79Z" transform="translate(-135.343 -485.766)" fill="#4d4b4b"></path><path id="Path_4390" data-name="Path 4390" d="M164.439,552.2h8.368V527.477h-8.368Zm2.79-21.628h2.789V549.1h-2.789Z" transform="translate(-136.544 -485.766)" fill="#4d4b4b"></path></svg>