<svg xmlns="http://www.w3.org/2000/svg" xmlns:xlink="http://www.w3.org/1999/xlink" width="56.239" height="56.239" viewBox="0 0 56.239 56.239"><defs><clipPath id="clip-path"><circle id="Ellipse_18" data-name="Ellipse 18" cx="28.12" cy="28.12" r="28.12" fill="#2d9d4f"></circle></clipPath></defs><g id="Group_1655" data-name="Group 1655" clip-path="url(#clip-path)"><g id="Mask_Group_16" data-name="Mask Group 16" transform="translate(0 0)"><path id="iconmonstr-checkbox-22" d="M181.736-490.319a23.433,23.433,0,0,1,23.433,23.433,23.433,23.433,0,0,1-23.433,23.433A23.433,23.433,0,0,1,158.3-466.885h0A23.46,23.46,0,0,1,181.736-490.319Zm0-4.686a28.12,28.12,0,0,0-28.12,28.12,28.12,28.12,0,0,0,28.12,28.12,28.119,28.119,0,0,0,28.12-28.12A28.119,28.119,0,0,0,181.736-495.005Zm-4.59,39.836L166.6-465.292l3.269-3.36,7.217,6.885L193.539-478.6l3.332,3.3-19.726,20.134Z" transform="translate(-153.616 495.005)" fill="#2d9d4f"></path></g></g></svg>