<svg xmlns="http://www.w3.org/2000/svg" id="Group_1697" data-name="Group 1697" width="82.311" height="92.715" viewBox="0 0 82.311 92.715"><g id="Group_1672" data-name="Group 1672"><g id="Group_1671" data-name="Group 1671"><path id="Path_4391" data-name="Path 4391" d="M673.376,487.3h-55.8c-3.849.008-6.967,3.463-6.972,7.727v49.448a7.631,7.631,0,0,0,5.236,7.482l.7-2.991a4.58,4.58,0,0,1-3.14-4.491V495.028a4.428,4.428,0,0,1,4.186-4.636h55.8a4.428,4.428,0,0,1,4.19,4.633v1.548h2.79v-1.545C680.352,490.761,677.229,487.3,673.376,487.3Z" transform="translate(-610.6 -487.301)" fill="#4d4b4b"></path></g></g><g id="Group_1674" data-name="Group 1674" transform="translate(5.581 6.181)"><g id="Group_1673" data-name="Group 1673"><rect id="Rectangle_334" data-name="Rectangle 334" width="2.791" height="3.091" fill="#4d4b4b"></rect></g></g><g id="Group_1676" data-name="Group 1676" transform="translate(11.161 6.181)"><g id="Group_1675" data-name="Group 1675"><rect id="Rectangle_335" data-name="Rectangle 335" width="2.791" height="3.091" fill="#4d4b4b"></rect></g></g><g id="Group_1678" data-name="Group 1678" transform="translate(16.742 6.181)"><g id="Group_1677" data-name="Group 1677"><rect id="Rectangle_336" data-name="Rectangle 336" width="2.791" height="3.091" fill="#4d4b4b"></rect></g></g><g id="Group_1680" data-name="Group 1680" transform="translate(13.951 24.727)"><g id="Group_1679" data-name="Group 1679"><path id="Path_4392" data-name="Path 4392" d="M694,572.743l-13.233-14.657a22.616,22.616,0,0,0,1.658-4.339h2.218v-3.091h-1.619a22.889,22.889,0,0,0-1.174-11.073v-15.2h-2.79v9.84a20.954,20.954,0,0,0-2.791-3.208V518.206h-2.79v10.653a18.662,18.662,0,0,0-2.791-1.476V512.028H667.9v14.42a17.5,17.5,0,0,0-2.791-.434v-10.9h-2.786v10.9a17.529,17.529,0,0,0-2.791.434V521.3h-2.79v6.087a18.659,18.659,0,0,0-2.791,1.476v-9.108h-2.79v11.268a21,21,0,0,0-2.791,3.208V522.842h-2.79v16.741a22.9,22.9,0,0,0-1.174,11.073h-18.36v3.091h18.959c3.059,11.431,13.9,17.951,24.225,14.563a18.765,18.765,0,0,0,5.691-3.054l12.918,14.307a1.3,1.3,0,0,0,1.972,0h0L694,574.928A1.666,1.666,0,0,0,694,572.743Zm-30.284-6.634c-9.246,0-16.741-8.3-16.741-18.543s7.5-18.543,16.741-18.543,16.741,8.3,16.741,18.543h0c-.01,10.236-7.5,18.532-16.741,18.543Zm25.111,10.177-11.737-13a21.148,21.148,0,0,0,2.1-2.576l11.849,13.124Z" transform="translate(-626.053 -512.028)" fill="#4d4b4b"></path></g></g><g id="Group_1682" data-name="Group 1682" transform="translate(37.669 44.812)"><g id="Group_1681" data-name="Group 1681"><path id="Path_4393" data-name="Path 4393" d="M666.274,532.113c-7.7,0-13.951,6.918-13.951,15.452s6.247,15.452,13.951,15.452,13.951-6.918,13.951-15.451S673.978,532.114,666.274,532.113Zm0,27.815a11.016,11.016,0,0,1-9.651-6.181h19.3A11.014,11.014,0,0,1,666.274,559.928Zm-10.794-9.272a13.028,13.028,0,0,1,3.819-12.725v9.635h2.79V536.114a10.247,10.247,0,0,1,2.791-.8V547.57h2.79V535.31a10.232,10.232,0,0,1,2.791.8v11.452h2.79v-9.634a13.023,13.023,0,0,1,3.818,12.725Z" transform="translate(-652.323 -532.113)" fill="#4d4b4b"></path></g></g><g id="Group_1684" data-name="Group 1684" transform="translate(8.371 12.362)"><g id="Group_1683" data-name="Group 1683"><path id="Path_4394" data-name="Path 4394" d="M682.651,499.663h-55.8c-3.85.005-6.971,3.461-6.975,7.726v49.448c0,4.265,3.125,7.721,6.975,7.727h18.137v-3.091H626.847a4.429,4.429,0,0,1-4.186-4.636V507.389a4.429,4.429,0,0,1,4.186-4.636h55.8a4.427,4.427,0,0,1,4.185,4.636v49.448a4.933,4.933,0,0,1-1.046,3.066l2.093,2.044a8.209,8.209,0,0,0,1.744-5.11V507.389C689.623,503.124,686.5,499.668,682.651,499.663Z" transform="translate(-619.872 -499.663)" fill="#4d4b4b"></path></g></g><g id="Group_1686" data-name="Group 1686" transform="translate(13.952 18.543)"><g id="Group_1685" data-name="Group 1685"><rect id="Rectangle_337" data-name="Rectangle 337" width="2.791" height="3.091" fill="#4d4b4b"></rect></g></g><g id="Group_1688" data-name="Group 1688" transform="translate(19.532 18.543)"><g id="Group_1687" data-name="Group 1687"><rect id="Rectangle_338" data-name="Rectangle 338" width="2.791" height="3.091" fill="#4d4b4b"></rect></g></g><g id="Group_1690" data-name="Group 1690" transform="translate(25.113 18.543)"><g id="Group_1689" data-name="Group 1689"><rect id="Rectangle_339" data-name="Rectangle 339" width="2.791" height="3.091" fill="#4d4b4b"></rect></g></g><g id="Group_1692" data-name="Group 1692" transform="translate(16.742 50.993)"><g id="Group_1691" data-name="Group 1691"><rect id="Rectangle_340" data-name="Rectangle 340" width="2.791" height="9.272" fill="#4d4b4b"></rect></g></g><g id="Group_1694" data-name="Group 1694" transform="translate(22.322 41.722)"><g id="Group_1693" data-name="Group 1693"><rect id="Rectangle_341" data-name="Rectangle 341" width="2.791" height="18.543" fill="#4d4b4b"></rect></g></g><g id="Group_1696" data-name="Group 1696" transform="translate(27.902 46.357)"><g id="Group_1695" data-name="Group 1695"><rect id="Rectangle_342" data-name="Rectangle 342" width="2.791" height="13.907" fill="#4d4b4b"></rect></g></g></svg>