<svg xmlns="http://www.w3.org/2000/svg" id="Group_1699" data-name="Group 1699" width="72.445" height="80.246" viewBox="0 0 72.445 80.246"><g id="Group_1698" data-name="Group 1698"><path id="Path_4395" data-name="Path 4395" d="M1220.886,509.748a1.254,1.254,0,0,0-.294,1.628v0a13.9,13.9,0,0,1-.039,14.209,6.443,6.443,0,0,0-4.721-4.4,8.091,8.091,0,0,0-.06-10.619,6.324,6.324,0,0,0-9.587.066,8.094,8.094,0,0,0,0,10.553,6.443,6.443,0,0,0-4.721,4.4c-3.557-5.839-2.167-13.767,3.106-17.707a10.6,10.6,0,0,1,12.828-.04,1,1,0,0,0,1.472-.324,1.254,1.254,0,0,0-.292-1.63c-6.264-4.626-14.729-2.752-18.905,4.186s-2.486,16.314,3.779,20.941,14.729,2.752,18.905-4.186a16.465,16.465,0,0,0,0-16.755,1,1,0,0,0-1.47-.325Zm-9.876,1.015a5.185,5.185,0,1,1-4.656,5.159v0A4.932,4.932,0,0,1,1211.01,510.763Zm-7.8,17.067a4.311,4.311,0,0,1,4.082-4.4h7.436a4.311,4.311,0,0,1,4.081,4.4,10.684,10.684,0,0,1-15.6,0Z" transform="translate(-1174.79 -493.535)" fill="#4d4b4b"></path><path id="Path_4396" data-name="Path 4396" d="M1237.379,556.678h3.431a1.186,1.186,0,0,0,0-2.351h-3.431a1.116,1.116,0,0,0-1.092,1.142,1.13,1.13,0,0,0,1.03,1.209A.6.6,0,0,0,1237.379,556.678Z" transform="translate(-1178.57 -493.535)" fill="#4d4b4b"></path><path id="Path_4397" data-name="Path 4397" d="M1237.379,561.744h8a1.186,1.186,0,0,0,0-2.351h-8a1.116,1.116,0,0,0-1.092,1.142,1.13,1.13,0,0,0,1.03,1.209Z" transform="translate(-1178.57 -493.535)" fill="#4d4b4b"></path><path id="Path_4398" data-name="Path 4398" d="M1237.379,566.811h8a1.186,1.186,0,0,0,0-2.351h-8a1.115,1.115,0,0,0-1.092,1.142,1.13,1.13,0,0,0,1.03,1.209A.6.6,0,0,0,1237.379,566.811Z" transform="translate(-1178.57 -493.535)" fill="#4d4b4b"></path><path id="Path_4399" data-name="Path 4399" d="M1244.073,554.207l-3.735-4.135a2.355,2.355,0,0,0-1.762-.811h-2.347V518.455a1.122,1.122,0,0,0-1.061-1.175h-4.09v-1.041a1.154,1.154,0,0,0-.845-1.151l-3.851-.888q-.188-.975-.463-1.922l2.932-2.9a1.269,1.269,0,0,0,.212-1.465l-2-3.839a1.018,1.018,0,0,0-1.251-.529l-3.739,1.365q-.6-.735-1.264-1.4l1.231-4.142a1.234,1.234,0,0,0-.478-1.386l-3.466-2.216a.987.987,0,0,0-1.322.235l-2.618,3.247a17.49,17.49,0,0,0-1.734-.513l-.8-4.264a1.094,1.094,0,0,0-1.038-.936h-4a1.094,1.094,0,0,0-1.039.936l-.8,4.264a16.981,16.981,0,0,0-1.735.513L1200.384,496a.987.987,0,0,0-1.322-.235l-3.466,2.216a1.237,1.237,0,0,0-.478,1.386l1.231,4.142c-.442.444-.865.913-1.264,1.4l-3.74-1.365a1.018,1.018,0,0,0-1.251.529l-2,3.839a1.269,1.269,0,0,0,.212,1.465l2.932,2.9q-.271.945-.463,1.922l-3.851.888a1.154,1.154,0,0,0-.844,1.151v1.041h-4.085a1.122,1.122,0,0,0-1.061,1.175v30.808h-6.086a2.64,2.64,0,0,0-2.49,2.759v19a2.639,2.639,0,0,0,2.49,2.759h14.295a2.637,2.637,0,0,0,2.49-2.759v-4.963a1.131,1.131,0,0,0-1.03-1.209,1.115,1.115,0,0,0-1.092,1.141c0,.023,0,.046,0,.068v4.963a.389.389,0,0,1-.367.408h-14.3a.389.389,0,0,1-.367-.408v-19a.39.39,0,0,1,.367-.408h10.088v2.307a2.638,2.638,0,0,0,2.491,2.759h2.083v3.891a1.131,1.131,0,0,0,1.031,1.21,1.115,1.115,0,0,0,1.092-1.142c0-.022,0-.045,0-.068v-4.408a2.9,2.9,0,0,0-.729-1.952l-3.735-4.135a2.355,2.355,0,0,0-1.762-.811h-2.347v-29.63h3.023v1.041a1.153,1.153,0,0,0,.845,1.151l3.851.888c.126.649.281,1.292.463,1.922l-2.932,2.9a1.27,1.27,0,0,0-.212,1.465l2,3.839a1.015,1.015,0,0,0,1.251.528l3.74-1.364c.4.49.824.959,1.264,1.4l-1.231,4.142a1.238,1.238,0,0,0,.478,1.386l3.466,2.216a.989.989,0,0,0,1.322-.235l2.618-3.248a16.158,16.158,0,0,0,1.735.513l.8,4.265a1.094,1.094,0,0,0,1.039.936h.936v5.883h-6.086a2.638,2.638,0,0,0-2.49,2.758v19a2.638,2.638,0,0,0,2.49,2.759h14.3a2.639,2.639,0,0,0,2.491-2.759V556.163a2.9,2.9,0,0,0-.729-1.95l-3.737-4.139a2.358,2.358,0,0,0-1.76-.808h-2.347v-5.882h.937a1.1,1.1,0,0,0,1.039-.936l.8-4.265a16.724,16.724,0,0,0,1.735-.513l2.618,3.248a.988.988,0,0,0,1.323.235l3.466-2.216a1.234,1.234,0,0,0,.477-1.386l-1.231-4.142q.664-.666,1.264-1.4l3.74,1.364a1.018,1.018,0,0,0,1.251-.528l2-3.839a1.268,1.268,0,0,0-.212-1.465l-2.932-2.9c.181-.63.337-1.273.462-1.922l3.851-.888a1.153,1.153,0,0,0,.845-1.151v-1.041h3.024v29.624h-6.086a2.639,2.639,0,0,0-2.491,2.759v4.987a1.064,1.064,0,1,0,2.122,0v-4.987a.39.39,0,0,1,.368-.408h10.087v2.307a2.638,2.638,0,0,0,2.491,2.759h2.084v14.34a.389.389,0,0,1-.368.408h-14.294a.39.39,0,0,1-.368-.408v-8.526a1.064,1.064,0,1,0-2.122,0v8.526a2.639,2.639,0,0,0,2.491,2.759h14.294a2.639,2.639,0,0,0,2.491-2.759V556.163a2.9,2.9,0,0,0-.73-1.952Zm-28.349,17.219h-14.292a.39.39,0,0,1-.368-.408v-19a.39.39,0,0,1,.368-.407h10.088v2.307a2.638,2.638,0,0,0,2.49,2.759h2.08v14.34a.39.39,0,0,1-.361.409Zm13.233-51.71-3.7.853a1.129,1.129,0,0,0-.83.95,19.081,19.081,0,0,1-.74,3.066,1.264,1.264,0,0,0,.29,1.281l2.814,2.784-1.135,2.183-3.589-1.309a1,1,0,0,0-1.146.362,17.172,17.172,0,0,1-2.025,2.243,1.257,1.257,0,0,0-.327,1.269l1.182,3.976-1.972,1.26-2.513-3.117a.993.993,0,0,0-1.156-.32,14.734,14.734,0,0,1-2.768.818,1.121,1.121,0,0,0-.858.919l-.77,4.094h-2.277l-.769-4.094a1.122,1.122,0,0,0-.859-.919,14.75,14.75,0,0,1-2.768-.818.993.993,0,0,0-1.156.32l-2.513,3.117-1.972-1.26,1.182-3.976a1.256,1.256,0,0,0-.327-1.269,17.172,17.172,0,0,1-2.025-2.243,1,1,0,0,0-1.146-.362l-3.589,1.309-1.138-2.183,2.812-2.787a1.264,1.264,0,0,0,.29-1.281,19.186,19.186,0,0,1-.739-3.066,1.128,1.128,0,0,0-.83-.95l-3.7-.853v-2.521l3.7-.853a1.128,1.128,0,0,0,.83-.95,19.237,19.237,0,0,1,.739-3.066,1.264,1.264,0,0,0-.29-1.281l-2.815-2.779,1.138-2.184,3.589,1.31a1,1,0,0,0,1.146-.362,17.26,17.26,0,0,1,2.026-2.244,1.256,1.256,0,0,0,.327-1.269l-1.183-3.975,1.972-1.26,2.514,3.116a.993.993,0,0,0,1.157.321,14.979,14.979,0,0,1,2.768-.819,1.118,1.118,0,0,0,.858-.918l.769-4.094h2.277l.77,4.094a1.121,1.121,0,0,0,.858.919,14.784,14.784,0,0,1,2.768.818.994.994,0,0,0,1.157-.32l2.514-3.117,1.971,1.26-1.182,3.975a1.257,1.257,0,0,0,.327,1.27,17.306,17.306,0,0,1,2.025,2.243,1,1,0,0,0,1.146.362l3.589-1.309,1.138,2.183-2.814,2.784a1.262,1.262,0,0,0-.289,1.281,19.234,19.234,0,0,1,.739,3.066,1.128,1.128,0,0,0,.83.95l3.7.853v2.519Z" transform="translate(-1172.358 -493.535)" fill="#4d4b4b"></path><path id="Path_4400" data-name="Path 4400" d="M1207.933,556.678h3.431a1.186,1.186,0,0,0,0-2.351h-3.431a1.186,1.186,0,0,0,0,2.351Z" transform="translate(-1175.715 -493.535)" fill="#4d4b4b"></path><path id="Path_4401" data-name="Path 4401" d="M1215.938,559.393h-8a1.186,1.186,0,0,0,0,2.351h8a1.115,1.115,0,0,0,1.092-1.141,1.132,1.132,0,0,0-1.031-1.21Z" transform="translate(-1175.715 -493.535)" fill="#4d4b4b"></path><path id="Path_4402" data-name="Path 4402" d="M1215.938,564.463h-8a1.186,1.186,0,0,0,0,2.351h8a1.115,1.115,0,0,0,1.092-1.141,1.132,1.132,0,0,0-1.031-1.21Z" transform="translate(-1175.715 -493.535)" fill="#4d4b4b"></path><path id="Path_4403" data-name="Path 4403" d="M1178.486,556.678h3.431a1.116,1.116,0,0,0,1.093-1.141,1.132,1.132,0,0,0-1.031-1.21h-3.492a1.186,1.186,0,0,0,0,2.351Z" transform="translate(-1172.853 -493.535)" fill="#4d4b4b"></path><path id="Path_4404" data-name="Path 4404" d="M1186.491,559.393h-8a1.186,1.186,0,0,0,0,2.351h8a1.186,1.186,0,0,0,0-2.351Z" transform="translate(-1172.853 -493.535)" fill="#4d4b4b"></path><path id="Path_4405" data-name="Path 4405" d="M1186.491,564.463h-8a1.186,1.186,0,0,0,0,2.351h8a1.186,1.186,0,0,0,0-2.351Z" transform="translate(-1172.853 -493.535)" fill="#4d4b4b"></path></g></svg>