<svg xmlns="http://www.w3.org/2000/svg" id="Layer_1" data-name="Layer 1" viewBox="0 0 200 200"><defs><style>.cls-1,.cls-2{fill:#4d4b4b;}.cls-2{font-size:37.47px;font-family:CVAakriti, CV Aakriti;}</style></defs><path class="cls-1" d="M91.52,31.36a2.28,2.28,0,0,0-2.29,2.28v6.93A61.85,61.85,0,0,0,29.78,100H22.86a2.3,2.3,0,0,0-2.29,2.29A70.95,70.95,0,1,0,91.52,31.36ZM93.81,36a66.46,66.46,0,0,1,64,64h-64ZM80.07,158.37c-1.55-.31-3.07-.71-4.57-1.14v-16h4.57Zm9.16,1.1c-1.54-.06-3.07-.19-4.58-.37V122.9h4.58Zm4.58-27.42h4.57v27c-1.5.18-3,.31-4.57.37Zm9.15,9.16h4.58v16c-1.51.44-3,.83-4.58,1.14Zm6.87-4.58H103v-6.86a2.28,2.28,0,0,0-2.29-2.29H93.81v-6.87a2.3,2.3,0,0,0-2.29-2.29H82.36a2.3,2.3,0,0,0-2.29,2.29v16H73.21a2.29,2.29,0,0,0-2.29,2.29v16.75a57.55,57.55,0,0,1-18.19-11.35l38.79-38.78,38.78,38.78a57.44,57.44,0,0,1-18.19,11.35V138.92A2.29,2.29,0,0,0,109.83,136.63Zm23.71,4.45L97,104.59h51.64A57.05,57.05,0,0,1,133.54,141.08ZM89.23,45.14v56.21L49.5,141.08A57.18,57.18,0,0,1,89.23,45.14Zm2.29,123.53a66.44,66.44,0,0,1-66.33-64.08h4.59a61.78,61.78,0,0,0,123.47,0h4.58A66.44,66.44,0,0,1,91.52,168.67Z"></path><path class="cls-1" d="M119,54.24a20.6,20.6,0,1,0,20.6,20.6A20.6,20.6,0,0,0,119,54.24Zm0,36.62a16,16,0,1,1,16-16A16,16,0,0,1,119,90.86Z"></path><text class="cls-2" transform="translate(51.55 102.3)">?</text><text class="cls-2" transform="translate(107.54 84.28)">?</text></svg>