<svg xmlns="http://www.w3.org/2000/svg" id="Layer_1" data-name="Layer 1" viewBox="0 0 200 200"><defs><style>.cls-1{fill:#4d4b4b;}</style></defs><path class="cls-1" d="M87.32,72.64H124c2.79,0,2.79-4.33,0-4.33H87.32C84.52,68.31,84.52,72.64,87.32,72.64Z"></path><path class="cls-1" d="M87.32,89.43h0l30.06,0c2.73,0,2.67-4.33,0-4.33l-30.06,0C84.52,85.11,84.52,89.43,87.32,89.43Z"></path><path class="cls-1" d="M87.32,106.23h0l25.16,0c2.73,0,2.66-4.33,0-4.33l-25.15,0C84.52,101.9,84.52,106.23,87.32,106.23Z"></path><path class="cls-1" d="M87.32,123h0L113,123c2.73,0,2.67-4.33,0-4.33l-25.63,0C84.52,118.7,84.52,123,87.32,123Z"></path><path class="cls-1" d="M123.43,135.47h0l-36.11,0c-2.73,0-2.67,4.33,0,4.33l36.11,0C126.23,139.8,126.23,135.47,123.43,135.47Z"></path><path class="cls-1" d="M123,152.27h0l-35.63,0c-2.73,0-2.67,4.33,0,4.33l35.63,0C125.75,156.59,125.75,152.27,123,152.27Z"></path><path class="cls-1" d="M200,106.45a2.36,2.36,0,0,0-.13-.83L189,75.74a2.56,2.56,0,0,0-2.16-1.6H176.39a15.26,15.26,0,0,0-13-12.9V50.38a5,5,0,0,0-5-5h-3.12V42.65a5,5,0,0,0-5-5h-3.13V34.5a5,5,0,0,0-5-5H57.28a5,5,0,0,0-5,5V156.3a5,5,0,0,0,5,5h3.13v3.13a5,5,0,0,0,5,5h3.12v2.71a5,5,0,0,0,5,5h67.61a2.27,2.27,0,0,0,1.55-.65l20-19.89a2.16,2.16,0,0,0,.63-1.53v-15h4.11c2.8,0,2.8-4.33,0-4.33H140.68a7.53,7.53,0,0,1,7.2-5.36h26.86a7.52,7.52,0,0,1,7.2,5.36h-3.05c-2.8,0-2.8,4.33,0,4.33h5.54a2.17,2.17,0,0,0,2.16-2.17,11.85,11.85,0,0,0-11.85-11.84h-7.13V78.5l16.33,0-9.88,27.16a2.27,2.27,0,0,0-.12.86,13,13,0,0,0,26.06,0v0Zm-5.25-2.25H179.19L187,82.81ZM172,74.14H150.63a10.91,10.91,0,0,1,21.37,0Zm-106.56,91a.7.7,0,0,1-.7-.7V75.94c0-2.8-4.33-2.8-4.33,0V157H57.28a.7.7,0,0,1-.7-.7V34.5a.7.7,0,0,1,.7-.7H142a.7.7,0,0,1,.7.7v3.13H65.44a5,5,0,0,0-5,5V65.11c0,2.8,4.33,2.8,4.33,0V42.65a.69.69,0,0,1,.7-.69h84.74a.7.7,0,0,1,.7.69v2.71H73.58a5,5,0,0,0-5,5V165.15Zm77.91,4.65v-12a.7.7,0,0,1,.7-.7H156Zm16-43.74V78.53h3.93v47.54Zm-4.33,0h-7.14A11.85,11.85,0,0,0,136,137.94a2.17,2.17,0,0,0,2.16,2.17H159V152.8h-15a5,5,0,0,0-5,5v15.06H73.58a.69.69,0,0,1-.69-.7V50.38a.7.7,0,0,1,.69-.7h84.75a.7.7,0,0,1,.69.7V61.27a15.27,15.27,0,0,0-12.78,12.87H135.79a2.59,2.59,0,0,0-2.17,1.6l-10.87,29.88a2.27,2.27,0,0,0-.12.86,13,13,0,0,0,26.06,0,2.1,2.1,0,0,0-.13-.86l-9.88-27.16,16.34,0v47.6Zm-27.14-21.9,7.78-21.39,7.78,21.39Zm16.21,4.33a8.7,8.7,0,0,1-16.86,0ZM187,115.07a8.73,8.73,0,0,1-8.44-6.54H195.4A8.72,8.72,0,0,1,187,115.07Z"></path></svg>