<svg xmlns="http://www.w3.org/2000/svg" id="Group_1653" data-name="Group 1653" width="78.198" height="86.618" viewBox="0 0 78.198 86.618"><path id="Path_4357" data-name="Path 4357" d="M207.83,358.754H188.281a1.3,1.3,0,0,0-1.184.838l-4.5,10.8-4.905,1.358h-9.648l-8.6-11.644a10.054,10.054,0,0,0-7.814-4.228v-.246a4.5,4.5,0,0,0,2.764-4.267V342.63a4.463,4.463,0,0,0,2.384-5.524,3.956,3.956,0,0,0-3.688-2.889h-9.516c-4.1,0-7.428,3.685-7.427,8.229a8.9,8.9,0,0,0,1.058,4.23l2.852,5.264v4.353a10.046,10.046,0,0,0-6.517,9.682v20.21h2.606v-20.21c0-3.985,2.918-7.217,6.517-7.221h8.709a7.523,7.523,0,0,1,6.049,3.176l8.992,12.174a1.257,1.257,0,0,0,1.008.529h6.521v5.774h-9.408a3.757,3.757,0,0,1-2.906-1.433l-10.177-12.525-1.937,1.932,4.875,6v11.8H157v-8.588l2.691,3.312a6.26,6.26,0,0,0,4.844,2.389h4.418a3.96,3.96,0,0,0,3.686,2.887H197.4a4.141,4.141,0,0,0,3.91-4.33v-2.57l7.7-18.479a1.513,1.513,0,0,0-.639-1.915A1.2,1.2,0,0,0,207.83,358.754Zm-57.5-5.775a1.374,1.374,0,0,1-1.034-.474l-1.415-1.567V346.2l2-3.325h1.909v8.487a1.545,1.545,0,0,1-1.462,1.617Zm-11.571-10.54a5.105,5.105,0,0,1,4.82-5.339h9.513a1.451,1.451,0,0,1,0,2.887h-3.909a1.278,1.278,0,0,0-1.083.643l-2.607,4.331a1.565,1.565,0,0,0-.218.8v4.33H142.1l-2.658-4.906a5.774,5.774,0,0,1-.685-2.747Zm3.91,10.54h3.369l1.415,1.568a4.011,4.011,0,0,0,1.573,1.083v.237h-6.358Zm33.885,21.654h1.3a1.166,1.166,0,0,0,.316-.043l4.689-1.3,5.346,3.553a.185.185,0,0,1,.053.238.152.152,0,0,1-.134.083.156.156,0,0,1-.031,0l-4.771-1.057a1.214,1.214,0,0,0-1.036.261l-4.514,3.753a1.228,1.228,0,0,1-.783.289h-.435Zm2.781,7.8,2.433-2.021h2.606v1.447a4.715,4.715,0,0,0,.224,1.443h-7.609a3.688,3.688,0,0,0,2.346-.87Zm19.376-.577a1.381,1.381,0,0,1-1.3,1.443h-9.119a1.38,1.38,0,0,1-1.3-1.443v-1.444h11.73Zm.469-4.331h-8.334a3.156,3.156,0,0,0-1.3-3.152l-4.491-2.985,4.063-9.742H205.8Z" transform="translate(-133.542 -299.567)" fill="#4d4b4b"></path><path id="Path_4358" data-name="Path 4358" d="M208.812,299.567H147.556a4.14,4.14,0,0,0-3.909,4.33v27.428h2.606V303.9a1.381,1.381,0,0,1,1.3-1.443h61.255a1.381,1.381,0,0,1,1.3,1.443v47.638a1.379,1.379,0,0,1-1.3,1.443H157.982v2.888h50.829a4.143,4.143,0,0,0,3.91-4.331V303.9A4.142,4.142,0,0,0,208.812,299.567Z" transform="translate(-134.524 -299.567)" fill="#4d4b4b"></path><ellipse id="Ellipse_18" data-name="Ellipse 18" cx="1.304" cy="1.444" rx="1.304" ry="1.444" transform="translate(13.032 4.33)" fill="#4d4b4b"></ellipse><ellipse id="Ellipse_19" data-name="Ellipse 19" cx="1.304" cy="1.444" rx="1.304" ry="1.444" transform="translate(16.942 4.33)" fill="#4d4b4b"></ellipse><ellipse id="Ellipse_20" data-name="Ellipse 20" cx="1.304" cy="1.444" rx="1.304" ry="1.444" transform="translate(20.852 4.33)" fill="#4d4b4b"></ellipse><path id="Path_4359" data-name="Path 4359" d="M203.977,314h-7.819a1.379,1.379,0,0,0-1.3,1.444v4.33h-6.517a1.379,1.379,0,0,0-1.3,1.444v5.774h-6.518a1.38,1.38,0,0,0-1.3,1.444v5.774H172.7a1.379,1.379,0,0,0-1.3,1.443h0v4.33h-6.517a1.379,1.379,0,0,0-1.3,1.444V347.2H160.97v2.887h46.918V347.2h-2.606V315.446a1.38,1.38,0,0,0-1.3-1.444Zm-37.794,28.871H171.4V347.2h-5.213ZM174,337.1h5.213v10.1H174Zm7.82-7.218h5.213V347.2h-5.213Zm7.819-7.217h5.213V347.2h-5.213Zm13.033,24.54h-5.21V316.889h5.214Z" transform="translate(-136.207 -299.567)" fill="#4d4b4b"></path><path id="Path_4360" data-name="Path 4360" d="M156.638,331.325h5.437a3.824,3.824,0,0,0,4.989,2.64,4.449,4.449,0,0,0,2.438-5.34l6.778-5.535a3.652,3.652,0,0,0,5.506-.527,4.7,4.7,0,0,0,.611-4.466l5.932-4.842a3.678,3.678,0,0,0,5.428-1.149,4.528,4.528,0,0,0,.452-.991h8.043v-2.887h-8.043a3.824,3.824,0,0,0-4.989-2.639,4.448,4.448,0,0,0-2.438,5.339l-6.154,5.023a3.726,3.726,0,0,0-5.286,1.782,4.735,4.735,0,0,0-.389,2.85l-7,5.712a3.679,3.679,0,0,0-5.428,1.15,4.5,4.5,0,0,0-.451.99h-5.437Zm33.887-23.1a1.451,1.451,0,1,1-1.3,1.443,1.38,1.38,0,0,1,1.3-1.443Zm-11.73,10.1a1.452,1.452,0,1,1-1.3,1.445v0a1.378,1.378,0,0,1,1.3-1.435Zm-13.032,10.1a1.446,1.446,0,1,0,0,.008Z" transform="translate(-135.786 -299.567)" fill="#4d4b4b"></path><rect id="Rectangle_332" data-name="Rectangle 332" width="2.606" height="2.887" transform="translate(69.074 8.661)" fill="#4d4b4b"></rect><rect id="Rectangle_333" data-name="Rectangle 333" width="2.606" height="2.887" transform="translate(15.639 28.871)" fill="#4d4b4b"></rect></svg>