<svg xmlns="http://www.w3.org/2000/svg" id="Layer_1" data-name="Layer 1" viewBox="0 0 200 200"><defs><style>.cls-1{fill:#4d4b4b;}</style></defs><path class="cls-1" d="M167.82,119.84v-.14A25.46,25.46,0,0,0,151.6,96l6.4-2.54a6.32,6.32,0,0,0,3.93-5.19,53.33,53.33,0,0,0,.24-5.37,52.67,52.67,0,0,0-.24-5.33A6.33,6.33,0,0,0,158,72.36l-8.23-3.28A51.61,51.61,0,0,0,145,57.56l3.48-8.16a6.15,6.15,0,0,0-.9-6.46c-1-1.21-2.14-2.46-3.62-4s-2.73-2.59-3.9-3.54a6.15,6.15,0,0,0-6.49-.94L125.37,38a51.61,51.61,0,0,0-11.52-4.78l-3.29-8.23A6.32,6.32,0,0,0,105.37,21a59.86,59.86,0,0,0-10.71,0,6.32,6.32,0,0,0-5.22,4l-3.29,8.2A51.61,51.61,0,0,0,74.63,38l-8.16-3.48a6.17,6.17,0,0,0-6.47.9c-1.21,1-2.46,2.13-4,3.62s-2.58,2.73-3.54,3.89a6.17,6.17,0,0,0-.94,6.5L55,57.54a51.61,51.61,0,0,0-4.78,11.52L42,72.36a6.31,6.31,0,0,0-3.93,5.19,59.75,59.75,0,0,0,0,10.7A6.31,6.31,0,0,0,42,93.47L48.4,96A25.44,25.44,0,0,0,32.18,119.7v.14a7.07,7.07,0,0,0-5.65,6.93V131A8.47,8.47,0,0,0,35,139.48a.67.67,0,0,1,.66.48,28,28,0,0,0,10.64,16.1v3.39a22.6,22.6,0,0,0-19.78,22.39v2.83a5.65,5.65,0,0,0,5.65,5.65H167.82a5.65,5.65,0,0,0,5.65-5.65v-2.83a22.6,22.6,0,0,0-19.78-22.39V156a20.91,20.91,0,0,0,4.87-4.37A31.49,31.49,0,0,0,164.33,140a.69.69,0,0,1,.66-.5,8.51,8.51,0,0,0,8.48-8.48v-4.23A7.07,7.07,0,0,0,167.82,119.84ZM55.35,94a2.82,2.82,0,0,0-1.69-2l-9.55-3.81a.68.68,0,0,1-.42-.52c-.15-1.6-.22-3.2-.21-4.81s.06-3.22.21-4.83a.66.66,0,0,1,.41-.48l9.56-3.81a2.83,2.83,0,0,0,1.69-2A46.07,46.07,0,0,1,60.6,59.2a2.82,2.82,0,0,0,.18-2.57l-4.05-9.46a.64.64,0,0,1,.07-.65C57.69,45.44,58.73,44.3,60,43s2.5-2.37,3.63-3.3a.63.63,0,0,1,.61,0l9.47,4a2.82,2.82,0,0,0,2.57-.18,45.85,45.85,0,0,1,12.63-5.24,2.82,2.82,0,0,0,2-1.7l3.81-9.53a.66.66,0,0,1,.52-.43,55.31,55.31,0,0,1,9.63,0,.68.68,0,0,1,.49.41l3.81,9.55a2.82,2.82,0,0,0,2,1.7,45.86,45.86,0,0,1,12.66,5.24,2.79,2.79,0,0,0,2.56.18l9.47-4a.61.61,0,0,1,.65.06c1.08.89,2.22,1.93,3.54,3.21s2.36,2.5,3.29,3.63a.59.59,0,0,1,0,.6l-4.06,9.46a2.84,2.84,0,0,0,.18,2.58,45.88,45.88,0,0,1,5.25,12.63,2.83,2.83,0,0,0,1.69,2l9.54,3.8a.69.69,0,0,1,.43.52c.15,1.6.22,3.2.21,4.81a45.92,45.92,0,0,1-.22,4.83.64.64,0,0,1-.41.48L146.34,92a2.84,2.84,0,0,0-1.69,2c0,.12-.07.23-.1.35-.71-.06-1.41-.11-2.15-.11a25.37,25.37,0,0,0-4.68.49,39.56,39.56,0,1,0-75.42,0,24.55,24.55,0,0,0-4.69-.48c-.72,0-1.44,0-2.15.11A3.58,3.58,0,0,0,55.35,94Zm75.73,65.43a22.28,22.28,0,0,0-9.89,3.73,22.47,22.47,0,0,0-9.89-3.73v-3.39a26.49,26.49,0,0,0,9.89-13.66,26.57,26.57,0,0,0,9.89,13.65Zm-5.65,25.21H74.57v-2.83a17,17,0,0,1,14.58-16.75,11.24,11.24,0,0,0,21.69,0,17,17,0,0,1,14.59,16.75ZM68.92,156a21.11,21.11,0,0,0,4.87-4.37,30.17,30.17,0,0,0,5-9.29,26.4,26.4,0,0,0,9.91,13.71v3.39a22.49,22.49,0,0,0-9.89,3.74,22.28,22.28,0,0,0-9.89-3.73Zm25.43,6.06v-3.53a22.53,22.53,0,0,0,11.3,0v3.55a5.65,5.65,0,1,1-11.3,0v0ZM125.43,131a2.83,2.83,0,0,1-2.82,2.83,6.42,6.42,0,0,0-6.11,4.66C115,144.14,110.85,153.6,100,153.6s-15-9.47-16.49-15.12a6.42,6.42,0,0,0-6.13-4.65A2.83,2.83,0,0,1,74.57,131v-4.23A1.42,1.42,0,0,1,76,125.35a1.39,1.39,0,0,1,.46.08,2.82,2.82,0,0,0,2.58-.35,3,3,0,0,0,1.11-1.6c.09-.35,2.53-8.57,17.5-9.33,1,3.75,5,11.77,19.8,11.77a50.58,50.58,0,0,0,5.5-.33,4.75,4.75,0,0,0,.63-.14,1.44,1.44,0,0,1,1.81,1,1,1,0,0,1,.06.36ZM94.35,91.43c0-1.15,2.2-2.83,5.65-2.83s5.65,1.68,5.65,2.83-2.2,2.82-5.65,2.82-5.65-1.65-5.65-2.81ZM100,99.91a19.8,19.8,0,0,1,19.78,19.78v.48c-12.43.77-15.81-4.31-16.7-7.54a5.66,5.66,0,0,0-5.78-4.18,29.69,29.69,0,0,0-16,4.93A19.8,19.8,0,0,1,100,99.92Zm9.47-3.81a7,7,0,0,0,1.83-4.66c0-4.75-5-8.47-11.3-8.47s-11.3,3.72-11.3,8.47a7.07,7.07,0,0,0,1.83,4.67,25.5,25.5,0,0,0-11.76,9.63,25.57,25.57,0,0,0-9.54-8.61A33.5,33.5,0,0,1,66.09,83a33.91,33.91,0,0,1,67.82,0,33.5,33.5,0,0,1-3.14,14.16,25.57,25.57,0,0,0-9.54,8.61,25.5,25.5,0,0,0-11.76-9.63ZM41.12,138.47A6.36,6.36,0,0,0,35,133.83,2.83,2.83,0,0,1,32.18,131v-4.23A1.4,1.4,0,0,1,34,125.43a2.83,2.83,0,0,0,3.81-2.65V119.7A19.75,19.75,0,0,1,75.77,112a25.19,25.19,0,0,0-1.2,7.71v.14a7.07,7.07,0,0,0-5.65,6.93V131A8.47,8.47,0,0,0,74,138.76a25.71,25.71,0,0,1-4.59,9.3,14.63,14.63,0,0,1-11.8,5.55C46.8,153.61,42.64,144.14,41.12,138.47Zm16.49,20.79a21.54,21.54,0,0,0,5.65-.75v3.58a5.65,5.65,0,1,1-11.3,0v-3.55A22.05,22.05,0,0,0,57.61,159.26ZM32.18,181.84a17,17,0,0,1,14.58-16.75,11.24,11.24,0,0,0,21.69,0,16.86,16.86,0,0,1,6,2,22.47,22.47,0,0,0-5.5,14.73v2.83H32.18Zm135.64,0v2.83H131.08v-2.83a22.47,22.47,0,0,0-5.5-14.73,16.8,16.8,0,0,1,6-2,11.23,11.23,0,0,0,21.68,0A17,17,0,0,1,167.82,181.84ZM148,162.09a5.65,5.65,0,0,1-11.3,0v-3.55a21.94,21.94,0,0,0,5.65.72,21.54,21.54,0,0,0,5.65-.75ZM167.82,131a2.74,2.74,0,0,1-.87,2,2.7,2.7,0,0,1-2,.81,6.36,6.36,0,0,0-6.11,4.65,25.9,25.9,0,0,1-4.69,9.58,14.6,14.6,0,0,1-11.8,5.55c-10.64,0-14.83-9.16-16.41-14.84a8.45,8.45,0,0,0,5.1-7.77v-4.23a7.07,7.07,0,0,0-5.65-6.93v-.14a25.19,25.19,0,0,0-1.2-7.71,19.75,19.75,0,0,1,37.94,7.71v3.08a2.82,2.82,0,0,0,3.81,2.65,1.41,1.41,0,0,1,1.77.92,1.16,1.16,0,0,1,.07.42Z"></path></svg>