<svg xmlns="http://www.w3.org/2000/svg" id="Group_1654" data-name="Group 1654" width="78.558" height="87.017" viewBox="0 0 78.558 87.017"><path id="Path_4361" data-name="Path 4361" d="M687.722,358.993l-5.4-5.985c6.47-12.841,2.315-29.06-9.278-36.225a22.15,22.15,0,0,0-26.479,2.24H632.487a12.081,12.081,0,0,0,.926-15.838,9.461,9.461,0,0,0-14.3-1.026A12.082,12.082,0,0,0,618.188,318a10.618,10.618,0,0,0,1.277,1.353c-5.179,1.315-8.854,6.415-8.866,12.3v8.421a9.764,9.764,0,0,0,6.336,9.409v31.29a5.345,5.345,0,0,0,5.028,5.613,4.853,4.853,0,0,0,3.841-1.939,4.716,4.716,0,0,0,7.12.581,5.86,5.86,0,0,0,1.75-4.255v-2.226l10.661-11.808-1.264-1.4,3.241-3.59a22.87,22.87,0,0,0,8.9,4.387v7.316l3.062.847-1.625,3,6.771,7.5,2.7-1.8.764,3.389h9.582l.764-3.39,2.7,1.8,6.771-7.5-1.625-3,3.061-.845V362.837l-3.061-.847Zm-4.9-18.918c0,13.177-9.644,23.858-21.541,23.857s-21.539-10.682-21.539-23.859,9.644-23.857,21.541-23.857S682.809,326.9,682.822,340.075Zm-3.8,28.068c.055,3.876-2.736,7.067-6.235,7.128s-6.38-3.032-6.435-6.907a7.734,7.734,0,0,1,.321-2.321,22.89,22.89,0,0,0,8.577-4.289,7.048,7.048,0,0,1,3.774,6.391Zm-41.813-10.4-2.534,2.807V349.9h.632a4.215,4.215,0,0,0,3.137-1.444,27.73,27.73,0,0,0,3.271,7.1l-3.241,3.59Zm0-17.663c0,.171.02.336.023.506a4.052,4.052,0,0,0-1.923-.506h-.632v-9.123a2.014,2.014,0,0,1,1.9-2.1h2.9a28.9,28.9,0,0,0-2.27,11.218Zm-10.188-7.541-1.215,1.346-1.215-1.346.939-10.7h.552ZM618.2,310.608c0-4.651,3.4-8.421,7.6-8.422s7.6,3.769,7.6,8.42-3.4,8.422-7.6,8.422h0c-4.2-.005-7.6-3.775-7.6-8.425Zm3.8,11.227h.98l-1.033,11.746,3.853,4.268,3.853-4.268-1.031-11.751h15.147a26.8,26.8,0,0,0-2.922,4.21h-4.277a4.7,4.7,0,0,0-4.435,4.912v9.123h-11.4a1.337,1.337,0,0,1-1.264-1.4h0v-9.824h-2.534v8.421h-3.807v-5.614c0-5.426,3.974-9.823,8.873-9.828Zm-8.874,18.24h4.034a3.84,3.84,0,0,0,3.569,2.806h14.572a2.117,2.117,0,0,1,0,4.211H619.469C615.971,347.09,613.135,343.95,613.131,340.075ZM629.6,383.581a2.683,2.683,0,0,1-2.533-2.807V355.512h-2.534v25.262a2.547,2.547,0,1,1-5.068,0h0V349.9h12.67v30.876a2.684,2.684,0,0,1-2.53,2.807Zm5.069-9V364.514l2.535-2.807,4.544,5.033Zm7.6-11.227-2.01-2.226,3.043-3.371a25.437,25.437,0,0,0,2.01,2.226Zm44.347,1.675v6.232l-2.468.682-.677.289-.59,1.6,1.642,3.03-3.972,4.4-2.735-1.818-1.546.7-.776,3.442h-5.623l-.617-2.736L669,380.1l-1.445-.652-2.734,1.818-3.972-4.4,1.642-3.03-.632-1.712-3.1-.858V366.6a20.978,20.978,0,0,0,5.192-.021c-.8,5.351,2.461,10.411,7.292,11.3s9.4-2.726,10.2-8.077a10.253,10.253,0,0,0-4.056-9.947,26.207,26.207,0,0,0,3.546-4.409l3.6,3.992-1.642,3.03.637,1.712Z" transform="translate(-610.6 -299.368)" fill="#4d4b4b"></path><path id="Path_4362" data-name="Path 4362" d="M695.7,306.392c0-3.873-2.839-7.012-6.336-7.017H684.3c-3.5.005-6.331,3.144-6.335,7.017v7.017h11.4C692.865,313.4,695.7,310.266,695.7,306.392Zm-15.2,0a4.026,4.026,0,0,1,3.8-4.21h5.068a4.233,4.233,0,0,1,0,8.421H680.5Z" transform="translate(-617.146 -299.368)" fill="#4d4b4b"></path><path id="Path_4363" data-name="Path 4363" d="M664.692,361.126c10.5,0,19-9.425,19-21.051s-8.508-21.051-19.006-21.051-19.005,9.425-19.005,21.051S654.2,361.113,664.692,361.126Zm-6.336-14.034h2.534V357.81a15.044,15.044,0,0,1-2.534-.9Zm-2.534,8.332a17,17,0,0,1-2.534-2.215V338.671h2.534Zm7.6,2.823v-30.8h2.534v30.8c-.419.037-.839.072-1.264.072s-.851-.035-1.269-.072Zm5.068-16.769h2.534v15.433a15.349,15.349,0,0,1-2.534.9Zm7.6,11.731a16.9,16.9,0,0,1-2.534,2.215V335.861H676.1Zm-11.4-31.379c9.08-.018,16.454,8.121,16.47,18.178a19.664,19.664,0,0,1-2.533,9.745V333.061h-7.6v5.614h-2.534V324.637h-7.6v19.648h-2.534v-8.424h-7.6V349.75c-4.843-8.507-2.542-19.752,5.138-25.116a15.29,15.29,0,0,1,8.8-2.807Z" transform="translate(-614.009 -299.368)" fill="#4d4b4b"></path></svg>