<svg xmlns="http://www.w3.org/2000/svg" width="376.247" height="36.417" viewBox="0 0 376.247 36.417"><defs><style>.a{fill:#e9222a;}.b{fill:#fff;}</style></defs><g transform="translate(-44.335 -1001.135)"><g transform="translate(44.335 1001.135)"><g transform="translate(19.287)"><path class="a" d="M77.979,1001.135l-9.769,19.211,9.769-9.7,9.769,9.7Z" transform="translate(-68.21 -1001.135)"></path><g transform="translate(6.285 12.22)"><path class="b" d="M79.474,1016.262l-3.484,3.46h6.969Z" transform="translate(-75.99 -1016.262)"></path></g></g><g transform="translate(76.153 1.069)"><g transform="translate(0 0.801)"><path class="b" d="M140.507,1003.449v16.216h-1.9v-16.216Z" transform="translate(-138.603 -1003.449)"></path></g><g transform="translate(4.666)"><path class="b" d="M144.379,1019.474v-17.016l12.206,12.671v-11.87H158.7v17.214l-12.282-13.178v12.18Z" transform="translate(-144.379 -1002.458)"></path></g><g transform="translate(19.906 0.801)"><path class="b" d="M165.917,1003.449l4.49,11.239,4.55-11.239h2.673l-7.27,17.439-7.115-17.439Z" transform="translate(-163.244 -1003.449)"></path></g><g transform="translate(35.41 0.801)"><path class="b" d="M191.09,1005.754h-6.51v4.188h6.308v2H184.58v5.417h6.51v2.3h-8.653v-16.216h8.653Z" transform="translate(-182.437 -1003.449)"></path></g><g transform="translate(45.855 0.492)"><path class="b" d="M205.067,1005.787l-1.928,1.176a4.662,4.662,0,0,0-.751-1.021,2.216,2.216,0,0,0-1.593-.57,2.369,2.369,0,0,0-1.687.606,1.864,1.864,0,0,0-.624,1.414,1.594,1.594,0,0,0,.751,1.342,3.724,3.724,0,0,0,.664.41q.317.149,1.877.8a6.6,6.6,0,0,1,2.818,1.973,4.588,4.588,0,0,1,.877,2.8,5.085,5.085,0,0,1-1.605,3.861,4.829,4.829,0,0,1-3.465,1.319,4.682,4.682,0,0,1-4.122-2.162,6.3,6.3,0,0,1-.913-2.625l2.4-.546a5.25,5.25,0,0,0,.451,1.782,2.274,2.274,0,0,0,.929.909,2.758,2.758,0,0,0,1.346.339,2.415,2.415,0,0,0,1.94-.879,2.735,2.735,0,0,0,.646-1.83,2.442,2.442,0,0,0-1.1-2.126,5.2,5.2,0,0,0-.728-.434q-.334-.161-1.952-.861-3.233-1.4-3.233-4.11a3.885,3.885,0,0,1,1.8-3.4,5.117,5.117,0,0,1,2.933-.891,4.438,4.438,0,0,1,2.442.653A5.7,5.7,0,0,1,205.067,1005.787Z" transform="translate(-195.366 -1003.067)"></path></g><g transform="translate(56.647 0.801)"><path class="b" d="M214.783,1005.754v13.911h-2.4v-13.911h-3.658v-2.3h9.7v2.3Z" transform="translate(-208.725 -1003.449)"></path></g><g transform="translate(66.497 0.365)"><path class="b" d="M220.919,1019.594l3.378-16.684,5.52,12.059,5.709-12.059,3.037,16.684h-2.332l-1.584-10.246-4.865,10.973-4.638-10.973-1.719,10.246Z" transform="translate(-220.919 -1002.91)"></path></g><g transform="translate(129.911 0.801)"><path class="b" d="M299.418,1019.665v-16.216h2.338a10.806,10.806,0,0,1,2.252.191,3.824,3.824,0,0,1,2.823,2.352,4.791,4.791,0,0,1,.433,1.984,1.94,1.94,0,0,0,.148,3.837,4.351,4.351,0,0,1,1.255,3.207,4.512,4.512,0,0,1-3.222,4.39,9.384,9.384,0,0,1-2.469.255Zm2.349-9.254h.729a2.568,2.568,0,0,0,1.881-.57,2.516,2.516,0,0,0,.662-1.818,2.385,2.385,0,0,0-.65-1.759,2.443,2.443,0,0,0-1.8-.569h-.821Zm0,6.949h1.46a3.72,3.72,0,0,0,2.155-.511,2.163,2.163,0,0,0,.7-.826,2.38,2.38,0,0,0,.268-1.087,2.46,2.46,0,0,0-.263-1.092,2.213,2.213,0,0,0-.7-.844,4.306,4.306,0,0,0-2.44-.534h-1.186Z" transform="translate(-299.418 -1003.449)"></path></g><g transform="translate(139.338 0.016)"><path class="b" d="M322.3,1015.592h-6.837l-1.78,3.886h-2.6l7.914-17,7.622,17h-2.634Zm-.972-2.272-2.377-5.433-2.482,5.433Z" transform="translate(-311.087 -1002.478)"></path></g><g transform="translate(173.121 0.801)"><path class="b" d="M355.114,1009.924l6.148-6.475h3.184l-7.132,7.342,7.178,8.874h-3.2l-5.685-7.211-.5.5v6.712h-2.207v-16.216h2.207Z" transform="translate(-352.907 -1003.449)"></path></g><g transform="translate(206.692 0.492)"><path class="b" d="M403.824,1011.314h6.488a14.982,14.982,0,0,1-.172,2.629,6.672,6.672,0,0,1-.659,1.919,7.267,7.267,0,0,1-2.471,2.755,7.561,7.561,0,0,1-4.289,1.284,8,8,0,0,1-3.873-.986,8.426,8.426,0,0,1,.2-14.921,8.5,8.5,0,0,1,3.9-.927,8.007,8.007,0,0,1,4.858,1.568,11.7,11.7,0,0,1,1.794,1.722l-1.746,1.675a5.964,5.964,0,0,0-4.87-2.661,6,6,0,0,0-6.059,6.142,5.708,5.708,0,0,0,1.936,4.454,5.805,5.805,0,0,0,3.944,1.628,4.865,4.865,0,0,0,3.255-1.218,4.349,4.349,0,0,0,1.6-2.928h-3.839Z" transform="translate(-394.464 -1003.067)"></path></g><g transform="translate(230.561 0.801)"><path class="b" d="M426.358,1003.449v13.911h4.58v2.3h-6.927v-16.216Z" transform="translate(-424.011 -1003.449)"></path></g><g transform="translate(265.483 0.801)"><path class="b" d="M473.417,1005.754v13.911h-2.447v-13.911H467.24v-2.3h9.9v2.3Z" transform="translate(-467.24 -1003.449)"></path></g><g transform="translate(287.798 0.801)"><path class="b" d="M494.863,1019.665v-16.216h3.345a11.667,11.667,0,0,1,4.021.558,7.307,7.307,0,0,1,3.951,3.445,8.459,8.459,0,0,1,.979,4.1,7.671,7.671,0,0,1-3.182,6.558,7.359,7.359,0,0,1-2.459,1.223,13.5,13.5,0,0,1-3.357.333Zm1.876-2.3h1.61a9.307,9.307,0,0,0,2.418-.267,5.261,5.261,0,0,0,1.8-.9,5.316,5.316,0,0,0,1.631-2.055,6.132,6.132,0,0,0,.536-2.578,6.047,6.047,0,0,0-1.061-3.528,4.886,4.886,0,0,0-2.1-1.741,8.258,8.258,0,0,0-3.222-.54h-1.61Z" transform="translate(-494.863 -1003.449)"></path></g><g transform="translate(86.153 0.801)"><path class="b" d="M253.9,1005.754h-6.51v4.188H253.7v2h-6.308v5.417h6.51v2.3H245.25v-16.216H253.9Z" transform="translate(-245.25 -1003.449)"></path></g><g transform="translate(96.813)"><path class="b" d="M258.446,1019.474v-17.016l12.206,12.671v-11.87h2.112v17.214l-12.281-13.178v12.18Z" transform="translate(-258.446 -1002.458)"></path></g><g transform="translate(112.351 0.801)"><path class="b" d="M283.738,1005.754v13.911h-2.4v-13.911H277.68v-2.3h9.7v2.3Z" transform="translate(-277.68 -1003.449)"></path></g><g transform="translate(156.142)"><path class="b" d="M331.888,1019.474v-17.016l12.206,12.671v-11.87h2.113v17.214l-12.282-13.178v12.18Z" transform="translate(-331.888 -1002.458)"></path></g><g transform="translate(190.835)"><path class="b" d="M374.835,1019.474v-17.016l12.206,12.671v-11.87h2.112v17.214l-12.281-13.178v12.18Z" transform="translate(-374.835 -1002.458)"></path></g><g transform="translate(238.833 0.801)"><path class="b" d="M436.155,1003.449v16.216h-1.9v-16.216Z" transform="translate(-434.251 -1003.449)"></path></g><g transform="translate(261.934 0.801)"><path class="b" d="M464.75,1003.449v16.216h-1.9v-16.216Z" transform="translate(-462.847 -1003.449)"></path></g><g transform="translate(242.327 0.203)"><path class="b" d="M438.575,1019.393l3.378-16.684,5.521,12.059,5.709-12.059,3.037,16.684h-2.331l-1.584-10.246-4.866,10.973-4.638-10.973-1.718,10.246Z" transform="translate(-438.575 -1002.709)"></path></g><g transform="translate(185.892 0.801)"><path class="b" d="M370.619,1003.449v16.216h-1.9v-16.216Z" transform="translate(-368.716 -1003.449)"></path></g><g transform="translate(276.783 0.801)"><path class="b" d="M489.882,1005.754h-6.51v4.188h6.308v2h-6.308v5.417h6.51v2.3h-8.653v-16.216h8.653Z" transform="translate(-481.228 -1003.449)"></path></g></g><g transform="translate(40.447 2.782)"><g transform="translate(0 0.006)"><path class="b" d="M94.4,1020.147v-15.561h2.947a17.827,17.827,0,0,1,2.839.183,5.94,5.94,0,0,1,1.876.616,4.208,4.208,0,0,1,1.682,1.641,3.692,3.692,0,0,1,.546,1.9,3.4,3.4,0,0,1-1.61,2.839,5.393,5.393,0,0,1,1.8.843,3.717,3.717,0,0,1,1.581,3.078,3.88,3.88,0,0,1-1.969,3.34,6.228,6.228,0,0,1-2.091.872,15.354,15.354,0,0,1-3.112.246Zm2.962-8.88h.919a3.936,3.936,0,0,0,2.372-.548,2.116,2.116,0,0,0,.834-1.744,2.014,2.014,0,0,0-.819-1.687,3.725,3.725,0,0,0-2.271-.547H97.366Zm0,6.669H99.2a5.876,5.876,0,0,0,2.717-.49,2.354,2.354,0,0,0,.885-.792,1.865,1.865,0,0,0,.338-1.044,1.914,1.914,0,0,0-.331-1.049,2.373,2.373,0,0,0-.877-.809,6.838,6.838,0,0,0-3.076-.513H97.366Z" transform="translate(-94.404 -1004.586)"></path></g><g transform="translate(14.243)"><path class="b" d="M114.417,1004.579v15.3h-2.382v-15.3Z" transform="translate(-112.035 -1004.579)"></path></g><g transform="translate(20.021)"><path class="b" d="M121.876,1004.579v13.389h6.144v1.914h-8.831v-15.3Z" transform="translate(-119.188 -1004.579)"></path></g></g><g transform="translate(0 1.775)"><path class="b" d="M44.335,1019.818v-16.486L58.99,1015.1v-10.72h3.034v16.385l-14.655-11.76v10.81Z" transform="translate(-44.335 -1003.332)"></path></g></g><g transform="translate(149.153 1027.287)"><path class="b" d="M176.268,1033.872a7.186,7.186,0,0,0-1.373,4.457,7.346,7.346,0,0,0,1.373,4.424h-.752a7.047,7.047,0,0,1-1.427-4.424,7.2,7.2,0,0,1,1.427-4.457Z" transform="translate(-174.088 -1033.578)"></path><path class="b" d="M178.986,1039.175l-.763,2.31h-.981l2.5-7.345h1.144l2.507,7.345h-1.013l-.785-2.31Zm2.409-.741-.72-2.113c-.163-.479-.272-.915-.381-1.341h-.023c-.109.435-.229.884-.371,1.33l-.718,2.124Z" transform="translate(-174.694 -1033.63)"></path><path class="b" d="M188.823,1040.3a3.356,3.356,0,0,0,1.7.48c.97,0,1.537-.513,1.537-1.253,0-.686-.393-1.079-1.384-1.461-1.2-.425-1.94-1.046-1.94-2.082a2.115,2.115,0,0,1,2.376-1.994,3.34,3.34,0,0,1,1.624.359l-.262.775a2.918,2.918,0,0,0-1.394-.349c-1,0-1.384.6-1.384,1.1,0,.686.447,1.024,1.461,1.417,1.242.479,1.873,1.078,1.873,2.156,0,1.135-.839,2.115-2.571,2.115a3.791,3.791,0,0,1-1.874-.469Z" transform="translate(-176.873 -1033.601)"></path><path class="b" d="M200.053,1040.542c0,.544.011,1.024.044,1.437h-.85l-.054-.86h-.022a1.984,1.984,0,0,1-1.744.98c-.827,0-1.819-.457-1.819-2.31v-3.083h.959v2.919c0,1,.305,1.679,1.177,1.679a1.385,1.385,0,0,0,1.263-.871,1.4,1.4,0,0,0,.088-.491v-3.235h.958Z" transform="translate(-178.223 -1034.123)"></path><path class="b" d="M203.024,1041.393c.022-.359.044-.894.044-1.362v-6.374h.948v3.311h.021a1.965,1.965,0,0,1,1.8-.969c1.308,0,2.234,1.089,2.223,2.69,0,1.885-1.188,2.823-2.365,2.823a1.878,1.878,0,0,1-1.765-.99H203.9l-.044.871Zm.992-2.114a1.728,1.728,0,0,0,.044.348,1.478,1.478,0,0,0,1.438,1.124c1,0,1.6-.817,1.6-2.028,0-1.057-.544-1.961-1.569-1.961a1.529,1.529,0,0,0-1.461,1.177,1.9,1.9,0,0,0-.054.393Z" transform="translate(-179.649 -1033.537)"></path><path class="b" d="M210.531,1040.97a2.524,2.524,0,0,0,1.264.38c.7,0,1.024-.349,1.024-.784,0-.457-.272-.709-.981-.97-.948-.338-1.4-.86-1.4-1.493a1.627,1.627,0,0,1,1.82-1.546,2.629,2.629,0,0,1,1.3.326l-.24.7a2.051,2.051,0,0,0-1.078-.306c-.566,0-.883.328-.883.719,0,.437.317.633,1,.9.915.348,1.384.806,1.384,1.591,0,.926-.719,1.579-1.972,1.579a2.992,2.992,0,0,1-1.482-.36Z" transform="translate(-181.045 -1034.094)"></path><path class="b" d="M217.129,1034.728a.594.594,0,0,1-1.188,0,.584.584,0,0,1,.6-.6A.568.568,0,0,1,217.129,1034.728Zm-1.067,6.756v-5.273h.958v5.273Z" transform="translate(-182.131 -1033.627)"></path><path class="b" d="M223.709,1033.657v6.374c0,.469.01,1,.044,1.362h-.861l-.044-.915h-.022a1.949,1.949,0,0,1-1.8,1.035,2.4,2.4,0,0,1-2.255-2.68,2.522,2.522,0,0,1,2.365-2.832,1.762,1.762,0,0,1,1.591.806h.022v-3.149Zm-.959,4.609a1.659,1.659,0,0,0-.044-.4,1.41,1.41,0,0,0-1.384-1.112c-.992,0-1.58.873-1.58,2.038,0,1.067.523,1.95,1.558,1.95a1.441,1.441,0,0,0,1.406-1.144,1.649,1.649,0,0,0,.044-.414Z" transform="translate(-182.675 -1033.537)"></path><path class="b" d="M227.889,1034.728a.594.594,0,0,1-1.188,0,.584.584,0,0,1,.6-.6A.569.569,0,0,1,227.889,1034.728Zm-1.068,6.756v-5.273h.959v5.273Z" transform="translate(-184.199 -1033.627)"></path><path class="b" d="M232.827,1041.95l-.077-.664h-.032a1.967,1.967,0,0,1-1.613.783,1.5,1.5,0,0,1-1.612-1.515c0-1.275,1.134-1.972,3.172-1.961v-.109a1.087,1.087,0,0,0-1.2-1.22,2.633,2.633,0,0,0-1.373.391l-.217-.631a3.267,3.267,0,0,1,1.732-.469c1.612,0,2.005,1.1,2.005,2.157v1.972a7.419,7.419,0,0,0,.087,1.264Zm-.142-2.692c-1.046-.021-2.233.164-2.233,1.188a.848.848,0,0,0,.9.915,1.313,1.313,0,0,0,1.275-.881.988.988,0,0,0,.054-.3Z" transform="translate(-184.735 -1034.094)"></path><path class="b" d="M236.494,1038.321c0-.62-.011-1.155-.044-1.644h.839l.033,1.035h.044a1.583,1.583,0,0,1,1.461-1.155,1.118,1.118,0,0,1,.272.031v.906a1.433,1.433,0,0,0-.327-.033,1.346,1.346,0,0,0-1.286,1.231,2.708,2.708,0,0,0-.043.446v2.812h-.948Z" transform="translate(-186.072 -1034.094)"></path><path class="b" d="M241.433,1036.706l1.154,3.116c.12.349.251.762.338,1.079h.023c.1-.318.206-.72.338-1.1l1.046-3.094h1.013l-1.438,3.758a8.041,8.041,0,0,1-1.809,3.3,2.612,2.612,0,0,1-1.177.621l-.24-.808a2.517,2.517,0,0,0,.839-.469,2.917,2.917,0,0,0,.806-1.066.69.69,0,0,0,.076-.229.85.85,0,0,0-.065-.251l-1.951-4.859Z" transform="translate(-186.829 -1034.123)"></path><path class="b" d="M255.141,1039.27a2.577,2.577,0,0,1-2.626,2.8,2.507,2.507,0,0,1-2.528-2.712,2.575,2.575,0,0,1,2.616-2.8A2.5,2.5,0,0,1,255.141,1039.27Zm-4.185.055c0,1.155.666,2.026,1.6,2.026.916,0,1.6-.86,1.6-2.048,0-.894-.446-2.028-1.58-2.028S250.956,1038.321,250.956,1039.325Z" transform="translate(-188.673 -1034.094)"></path><path class="b" d="M257.806,1041.364v-4.544h-.741v-.729h.741v-.251a2.487,2.487,0,0,1,.611-1.841,1.835,1.835,0,0,1,1.286-.491,2.2,2.2,0,0,1,.818.153l-.131.74a1.448,1.448,0,0,0-.611-.12c-.817,0-1.024.72-1.024,1.526v.284h1.275v.729h-1.275v4.544Z" transform="translate(-190.034 -1033.508)"></path><path class="b" d="M264.7,1041.486v-7.345h1.036l2.354,3.716a20.83,20.83,0,0,1,1.318,2.387l.023-.011c-.088-.982-.109-1.874-.109-3.018v-3.074h.893v7.345h-.958l-2.332-3.727a23.227,23.227,0,0,1-1.373-2.453l-.032.011c.054.927.077,1.81.077,3.029v3.138Z" transform="translate(-191.5 -1033.63)"></path><path class="b" d="M276.351,1041.95l-.076-.664h-.033a1.967,1.967,0,0,1-1.612.783,1.5,1.5,0,0,1-1.612-1.515c0-1.275,1.133-1.972,3.17-1.961v-.109a1.087,1.087,0,0,0-1.2-1.22,2.633,2.633,0,0,0-1.373.391l-.218-.631a3.274,3.274,0,0,1,1.733-.469c1.613,0,2.005,1.1,2.005,2.157v1.972a7.42,7.42,0,0,0,.087,1.264Zm-.141-2.692c-1.046-.021-2.234.164-2.234,1.188a.848.848,0,0,0,.9.915,1.312,1.312,0,0,0,1.275-.881,1.014,1.014,0,0,0,.055-.3Z" transform="translate(-193.099 -1034.094)"></path><path class="b" d="M279.974,1041.393c.022-.359.044-.894.044-1.362v-6.374h.948v3.311h.023a1.962,1.962,0,0,1,1.8-.969c1.307,0,2.234,1.089,2.223,2.69,0,1.885-1.188,2.823-2.365,2.823a1.877,1.877,0,0,1-1.764-.99h-.033l-.044.871Zm.991-2.114a1.789,1.789,0,0,0,.044.348,1.478,1.478,0,0,0,1.438,1.124c1,0,1.6-.817,1.6-2.028,0-1.057-.544-1.961-1.57-1.961a1.529,1.529,0,0,0-1.46,1.177,1.892,1.892,0,0,0-.055.393Z" transform="translate(-194.436 -1033.537)"></path><path class="b" d="M288.739,1034.728a.593.593,0,0,1-1.187,0,.583.583,0,0,1,.6-.6A.569.569,0,0,1,288.739,1034.728Zm-1.067,6.756v-5.273h.959v5.273Z" transform="translate(-195.892 -1033.627)"></path><path class="b" d="M290.855,1033.657h.959v7.736h-.959Z" transform="translate(-196.527 -1033.537)"></path><path class="b" d="M296.937,1034.228a9.1,9.1,0,0,1,1.732-.153,3.032,3.032,0,0,1,2.016.533,1.54,1.54,0,0,1,.611,1.3,1.742,1.742,0,0,1-1.242,1.612v.023a1.894,1.894,0,0,1,1.515,1.841,1.982,1.982,0,0,1-.621,1.472,3.688,3.688,0,0,1-2.539.687,11,11,0,0,1-1.47-.088Zm.947,3.008h.861c1,0,1.591-.524,1.591-1.233,0-.86-.654-1.2-1.613-1.2a4.065,4.065,0,0,0-.839.065Zm0,3.518a5,5,0,0,0,.8.044c.981,0,1.885-.359,1.885-1.428,0-1-.861-1.415-1.9-1.415h-.785Z" transform="translate(-197.696 -1033.617)"></path><path class="b" d="M307.025,1041.95l-.075-.664h-.033a1.969,1.969,0,0,1-1.613.783,1.5,1.5,0,0,1-1.612-1.515c0-1.275,1.133-1.972,3.171-1.961v-.109a1.087,1.087,0,0,0-1.2-1.22,2.631,2.631,0,0,0-1.373.391l-.218-.631a3.272,3.272,0,0,1,1.733-.469c1.613,0,2.005,1.1,2.005,2.157v1.972a7.426,7.426,0,0,0,.086,1.264Zm-.141-2.692c-1.046-.021-2.234.164-2.234,1.188a.848.848,0,0,0,.9.915,1.312,1.312,0,0,0,1.275-.881,1.014,1.014,0,0,0,.055-.3Z" transform="translate(-198.994 -1034.094)"></path><path class="b" d="M310.692,1038.1c0-.544-.011-.99-.044-1.426h.851l.055.871h.021a1.938,1.938,0,0,1,1.743-.991c.73,0,1.864.435,1.864,2.243v3.15h-.959v-3.041c0-.849-.316-1.557-1.221-1.557a1.362,1.362,0,0,0-1.285.98,1.387,1.387,0,0,0-.065.448v3.17h-.959Z" transform="translate(-200.331 -1034.094)"></path><path class="b" d="M319.134,1038.539h.023c.131-.187.315-.415.469-.6l1.547-1.818h1.155l-2.038,2.167,2.321,3.105h-1.165l-1.82-2.528-.491.544v1.983h-.947v-7.736h.947Z" transform="translate(-201.779 -1033.537)"></path><path class="b" d="M327.409,1034.141h.948v6.549h3.138v.8h-4.086Z" transform="translate(-203.552 -1033.63)"></path><path class="b" d="M334.772,1034.728a.594.594,0,0,1-1.188,0,.584.584,0,0,1,.6-.6A.569.569,0,0,1,334.772,1034.728Zm-1.069,6.756v-5.273h.96v5.273Z" transform="translate(-204.738 -1033.627)"></path><path class="b" d="M336.878,1038.1c0-.544-.011-.99-.044-1.426h.839l.044.848h.032a1.819,1.819,0,0,1,1.657-.969,1.558,1.558,0,0,1,1.492,1.057h.023a2.172,2.172,0,0,1,.587-.688,1.809,1.809,0,0,1,1.166-.369c.7,0,1.734.457,1.734,2.288v3.105h-.937v-2.985c0-1.013-.371-1.624-1.145-1.624a1.242,1.242,0,0,0-1.133.871,1.609,1.609,0,0,0-.076.48v3.258h-.937v-3.16c0-.838-.37-1.449-1.1-1.449a1.431,1.431,0,0,0-1.263,1.427v3.181h-.937Z" transform="translate(-205.363 -1034.094)"></path><path class="b" d="M349.173,1034.728a.594.594,0,0,1-1.188,0,.584.584,0,0,1,.6-.6A.569.569,0,0,1,349.173,1034.728Zm-1.067,6.756v-5.273h.958v5.273Z" transform="translate(-207.506 -1033.627)"></path><path class="b" d="M352.3,1034.831v1.515h1.372v.729H352.3v2.844c0,.653.185,1.024.718,1.024a2.207,2.207,0,0,0,.557-.065l.044.718a2.342,2.342,0,0,1-.85.131,1.328,1.328,0,0,1-1.036-.4,1.958,1.958,0,0,1-.37-1.373v-2.877h-.818v-.729h.818v-1.266Z" transform="translate(-207.998 -1033.762)"></path><path class="b" d="M356.113,1039.487a1.691,1.691,0,0,0,1.809,1.832,3.467,3.467,0,0,0,1.461-.273l.163.686a4.254,4.254,0,0,1-1.754.327,2.449,2.449,0,0,1-2.594-2.659,2.56,2.56,0,0,1,2.474-2.844,2.234,2.234,0,0,1,2.179,2.483,3.692,3.692,0,0,1-.032.447Zm2.812-.687a1.366,1.366,0,0,0-1.33-1.557,1.588,1.588,0,0,0-1.471,1.557Z" transform="translate(-208.892 -1034.094)"></path><path class="b" d="M366.89,1033.657v6.374c0,.469.011,1,.044,1.362h-.86l-.044-.915h-.022a1.951,1.951,0,0,1-1.8,1.035,2.4,2.4,0,0,1-2.255-2.68,2.521,2.521,0,0,1,2.365-2.832,1.763,1.763,0,0,1,1.591.806h.021v-3.149Zm-.959,4.609a1.7,1.7,0,0,0-.044-.4,1.411,1.411,0,0,0-1.384-1.112c-.991,0-1.58.873-1.58,2.038,0,1.067.523,1.95,1.558,1.95a1.441,1.441,0,0,0,1.406-1.144,1.689,1.689,0,0,0,.044-.414Z" transform="translate(-210.19 -1033.537)"></path><path class="b" d="M369.316,1042.753a7.382,7.382,0,0,0,1.373-4.458,7.223,7.223,0,0,0-1.373-4.424h.741a6.941,6.941,0,0,1,1.427,4.435,7.072,7.072,0,0,1-1.427,4.446Z" transform="translate(-211.605 -1033.578)"></path></g></g></svg>